<?xml version="1.0" standalone="no"?>
<!DOCTYPE svg PUBLIC "-//W3C//DTD SVG 20010904//EN"
 "http://www.w3.org/TR/2001/REC-SVG-20010904/DTD/svg10.dtd">
<svg version="1.0" xmlns="http://www.w3.org/2000/svg"
 width="260.000000pt" height="260.000000pt" viewBox="0 0 260.000000 260.000000"
 preserveAspectRatio="xMidYMid meet">
<metadata>
Created by potrace 1.11, written by Peter Selinger 2001-2013
</metadata>
<g transform="translate(0.000000,260.000000) scale(0.100000,-0.100000)"
fill="#000000" stroke="none">
<path d="M1476 2348 c-3 -29 -8 -81 -11 -116 l-6 -63 95 -102 96 -102 0 -89
c0 -67 -3 -87 -12 -83 -170 74 -262 93 -401 82 -187 -14 -315 -71 -438 -194
-128 -128 -201 -306 -218 -534 -27 -365 81 -653 304 -812 89 -64 156 -92 265
-111 360 -63 662 96 789 416 67 170 81 337 81 980 l0 475 -142 153 -141 152
-128 0 -128 0 -5 -52z m-103 -740 c59 -18 147 -104 185 -181 72 -146 97 -401
57 -592 -32 -158 -118 -290 -218 -335 -62 -29 -167 -27 -232 4 -135 63 -223
240 -232 471 -15 379 128 643 351 645 27 0 67 -5 89 -12z"/>
</g>
</svg>
