<svg width="57" height="64" viewBox="0 0 57 64" fill="none" xmlns="http://www.w3.org/2000/svg">
<path fill-rule="evenodd" clip-rule="evenodd" d="M56.0933 62.4565L53.96 58.1899C53.7784 57.8265 53.4062 57.5978 53 57.6H45.5333V47.9733C47.88 47.8667 53 47.3451 53 44.8C53.0017 44.238 52.5672 43.771 52.0065 43.7325C51.4459 43.6939 50.9514 44.0969 50.8762 44.6539C49.6687 45.3417 48.3083 45.7164 46.9189 45.744L42.3322 41.1573V30.9067C44.6789 30.8 49.7989 30.2784 49.7989 27.7333C49.8007 27.1713 49.3661 26.7044 48.8055 26.6658C48.2448 26.6272 47.7504 27.0303 47.6752 27.5872C46.761 28.1435 45.7279 28.4747 44.6608 28.5536L39.8864 23.7792C39.6866 23.5794 39.4158 23.467 39.1333 23.4667V13.84C39.5802 13.8197 40.1306 13.7813 40.7258 13.7195C43.2528 13.4571 46.6 12.7243 46.6 10.6667C46.6017 10.1047 46.1672 9.63771 45.6065 9.59913C45.0458 9.56055 44.5514 9.9636 44.4762 10.5205C43.478 11.1123 42.3525 11.4561 41.1941 11.5232L29.5333 4.72107V1.06667C29.5333 0.477563 29.0557 0 28.4666 0C27.8775 0 27.4 0.477563 27.4 1.06667V4.72107L15.7392 11.52C14.5807 11.4529 13.4552 11.1091 12.457 10.5173C12.3818 9.95973 11.8864 9.55646 11.3251 9.59592C10.7638 9.63539 10.3298 10.104 10.3333 10.6667C10.3333 12.7243 13.6805 13.4571 16.2 13.7195C16.7952 13.7813 17.3456 13.8197 17.7925 13.84V23.4667C17.5096 23.4667 17.2383 23.5791 17.0384 23.7792L12.264 28.5536C11.1968 28.4747 10.1637 28.1435 9.24955 27.5872C9.15451 27.0502 8.66976 26.6714 8.12573 26.709C7.5817 26.7465 7.15362 27.1884 7.13329 27.7333C7.13329 30.2784 12.2533 30.8 14.6 30.9067V41.1584L10.0133 45.7451C8.62389 45.7175 7.26348 45.3427 6.05595 44.6549C5.97717 44.1017 5.48474 43.703 4.92721 43.7411C4.36968 43.7792 3.93607 44.2412 3.93329 44.8C3.93329 47.3451 9.05329 47.8667 11.4 47.9733V57.6H3.93329C3.52899 57.5998 3.15934 57.8282 2.97862 58.1899L0.845286 62.4565C0.680019 62.7873 0.697805 63.18 0.892293 63.4944C1.08678 63.8089 1.43023 64.0002 1.79995 64H55.1333C55.504 64.002 55.8491 63.8115 56.0449 63.4967C56.2407 63.1819 56.259 62.7881 56.0933 62.4565ZM15.0416 28.8L18.2416 25.6H38.6917L41.8917 28.8H15.0416ZM40.2 30.9333V40.5333H33.8V30.9333H40.2ZM31.6666 30.9333V40.5333H25.2666V30.9333H31.6666ZM23.1333 30.9333V40.5333H16.7333V30.9333H23.1333ZM19.9333 23.4667V13.8667H24.2V23.4667H19.9333ZM26.3333 23.4667V13.8667H30.6V23.4667H26.3333ZM32.7333 23.4667V13.8667H37V23.4667H32.7333ZM28.4666 6.56853L37.32 11.7333H19.6133L28.4666 6.56853ZM16.1082 42.6667H40.825L44.025 45.8667H12.9082L16.1082 42.6667ZM43.4 48V57.6H34.8666V48H43.4ZM32.7333 48V57.6H24.2V48H32.7333ZM22.0666 48V57.6H13.5333V48H22.0666ZM3.52582 61.8667L4.59249 59.7333H52.3408L53.4074 61.8667H3.52582Z" fill="#1B7DFF"/>
</svg>
