<svg width="64" height="64" viewBox="0 0 64 64" fill="none" xmlns="http://www.w3.org/2000/svg">
<path fill-rule="evenodd" clip-rule="evenodd" d="M57.858 61.7581L46.9557 50.8559C53.2058 48.9375 57.7631 43.1126 57.7631 36.2419V15.2843C57.7631 6.85679 50.9065 0.000259399 42.4785 0.000259399H21.5215C13.0935 0.000259399 6.2369 6.85679 6.2369 15.2843V36.2419C6.2369 43.1125 10.7943 48.9374 17.0443 50.8558L8.69059 59.2095C8.3809 59.3422 8.1321 59.591 7.99948 59.9007L6.14206 61.7581C5.62908 62.2711 5.62908 63.102 6.14206 63.615C6.3985 63.8715 6.7345 63.9996 7.0705 63.9996C7.40641 63.9996 7.74241 63.8715 7.99886 63.615L9.88392 61.7299H53.9983C54.0214 61.7299 54.0436 61.7269 54.066 61.7239H54.066H54.0661L54.0662 61.7238C54.0792 61.7221 54.0922 61.7203 54.1054 61.7191L56.0013 63.615C56.2578 63.8715 56.5938 63.9996 56.9297 63.9996C57.2656 63.9996 57.6017 63.8715 57.8581 63.615C58.3709 63.102 58.3709 62.2711 57.858 61.7581ZM8.86304 36.2419V15.2843C8.86304 8.30462 14.5418 2.62648 21.5214 2.62648H42.4784C49.4581 2.62648 55.1368 8.30462 55.1368 15.2843V36.2419C55.1368 43.2215 49.4581 48.9003 42.4784 48.9003H21.5215C14.5419 48.9003 8.86304 43.2216 8.86304 36.2419ZM17.7445 53.8693H46.2556L43.848 51.4618C43.3966 51.5022 42.9401 51.5266 42.4785 51.5266H21.5215C21.0598 51.5266 20.6034 51.5021 20.152 51.4618L17.7445 53.8693ZM12.51 59.1038L12.5101 59.1037H51.49L48.7548 56.3685C48.5862 56.4481 48.3996 56.4955 48.2009 56.4955H15.1182L12.5101 59.1037H12.51V59.1038ZM42.4785 29.0641C47.4045 29.0641 51.4125 25.0568 51.4125 20.1307V15.2843C51.4125 10.3582 47.4045 6.3503 42.4785 6.3503H21.5215C16.5955 6.3503 12.5877 10.3582 12.5877 15.2843V20.1307C12.5877 25.0568 16.5955 29.0641 21.5215 29.0641H42.4785ZM15.2138 20.1308V15.2843C15.2138 11.806 18.0432 8.97661 21.5215 8.97661H42.4785C45.9568 8.97661 48.7862 11.806 48.7862 15.2843V20.1308C48.7862 23.6085 45.9568 26.4379 42.4785 26.4379H21.5215C18.0432 26.4379 15.2138 23.6084 15.2138 20.1308ZM27.4491 37.9557C27.4491 34.8936 24.9575 32.402 21.8954 32.402C18.8332 32.402 16.3417 34.8936 16.3417 37.9557C16.3417 41.0179 18.8333 43.5089 21.8954 43.5089C24.9574 43.5089 27.4491 41.0179 27.4491 37.9557ZM18.9677 37.9557C18.9677 36.3413 20.2808 35.0282 21.8953 35.0282C23.5097 35.0282 24.8229 36.3412 24.8229 37.9557C24.8229 39.5695 23.5098 40.8827 21.8953 40.8827C20.2809 40.8827 18.9677 39.5695 18.9677 37.9557ZM36.551 37.9556C36.551 34.8935 39.0426 32.4019 42.1047 32.4019C45.1669 32.4019 47.6579 34.8934 47.6579 37.9556C47.6579 41.0179 45.1669 43.5088 42.1047 43.5088C39.0426 43.5088 36.551 41.0178 36.551 37.9556ZM39.1772 37.9557C39.1772 39.5696 40.4903 40.8827 42.1047 40.8827C43.7185 40.8827 45.0316 39.5695 45.0317 37.9557C45.0317 36.3412 43.7185 35.0282 42.1047 35.0282C40.4902 35.0282 39.1772 36.3413 39.1772 37.9557ZM22.9891 22.7102L31.1389 14.5611C31.6518 14.0481 31.6518 13.2171 31.1389 12.7043C30.626 12.1913 29.795 12.1913 29.2821 12.7043L21.1322 20.8534C20.6193 21.3663 20.6193 22.1972 21.1322 22.7102C21.3886 22.9667 21.7246 23.0949 22.0606 23.0949C22.3966 23.0949 22.7326 22.9667 22.9891 22.7102ZM34.7165 22.7102C34.4602 22.9667 34.1241 23.0949 33.7882 23.0949C33.4523 23.0949 33.1163 22.9667 32.8597 22.7102C32.3468 22.1972 32.3468 21.3657 32.8597 20.8534L41.0108 12.7043C41.5237 12.1913 42.3546 12.1914 42.8676 12.7043C43.3805 13.2171 43.3805 14.0488 42.8676 14.5611L34.7165 22.7102Z" fill="#1B7DFF"/>
</svg>
