<svg width="64" height="64" viewBox="0 0 64 64" fill="none" xmlns="http://www.w3.org/2000/svg">
<path fill-rule="evenodd" clip-rule="evenodd" d="M11.047 18.8909H1.22849C0.796876 18.8909 0.447998 18.542 0.447998 18.1104V10.3024C0.447998 9.87082 0.797657 9.52194 1.22849 9.52194H10.3196L9.696 1.49073C9.66322 1.06068 9.984 0.686042 10.414 0.652481C10.8324 0.619701 11.2195 0.940481 11.2523 1.37053L11.8658 9.27375L12.384 1.66712C12.4129 1.23707 12.7922 0.92175 13.2152 0.941262C13.646 0.97092 13.9707 1.34243 13.9411 1.77326L13.4135 9.52194H22.4983C22.9292 9.52194 23.2788 9.87082 23.2788 10.3024V18.1104C23.2788 18.542 22.9292 18.8909 22.4983 18.8909H12.7774L12.7009 20.0086L16.0016 62.5381C16.0343 62.9682 15.7136 63.3428 15.2835 63.3764C15.2632 63.3779 15.2429 63.3787 15.2226 63.3787C14.8191 63.3787 14.4773 63.0673 14.4453 62.6583L11.9688 30.7528L9.81541 62.3649C9.78732 62.777 9.4439 63.0923 9.03727 63.0923C9.01932 63.0923 9.00136 63.0915 8.98341 63.0907C8.55258 63.0611 8.2279 62.6896 8.25756 62.2587L11.1344 20.0172L11.047 18.8909ZM21.7163 17.3299V11.0829H13.3073L12.8819 17.3299H21.7163ZM2.00897 11.0829H10.4414L10.926 17.3299H2.00897V11.0829ZM41.3893 30.4016H54.8894C59.2898 30.4016 62.8706 26.8215 62.8706 22.4203V8.92097C62.8706 4.5198 59.2905 0.939701 54.8894 0.939701H41.3893C36.9889 0.939701 33.4088 4.5198 33.4088 8.92097V22.4211C33.4088 26.8215 36.9889 30.4016 41.3893 30.4016ZM34.9698 8.92097C34.9698 7.34673 35.5419 5.90438 36.4862 4.78673L37.9848 6.28526C38.137 6.43746 38.3368 6.51395 38.5366 6.51395C38.7364 6.51395 38.9362 6.43746 39.0884 6.28526C39.3936 5.98009 39.3936 5.48682 39.0884 5.18165L37.6328 3.72604C38.6903 2.95882 39.986 2.50068 41.3893 2.50068H48.5042V4.01092C48.5042 4.44253 48.8539 4.79141 49.2847 4.79141C49.7155 4.79141 50.0652 4.44253 50.0652 4.01092V2.50068H54.8901C58.4304 2.50068 61.3104 5.38068 61.3104 8.92097V12.967C61.3074 12.9668 61.3046 12.9663 61.3018 12.9657L61.2987 12.9649L61.2939 12.9635C61.2879 12.9617 61.2819 12.96 61.2753 12.96H58.9854C58.5545 12.96 58.2049 13.3089 58.2049 13.7405C58.2049 14.1721 58.5545 14.521 58.9854 14.521H61.2753L61.2797 14.5207C61.2815 14.5205 61.2833 14.5202 61.285 14.5198C61.288 14.5192 61.2909 14.5183 61.2939 14.5175C61.2992 14.5159 61.3046 14.5143 61.3104 14.5139V22.4211C61.3104 25.9606 58.4304 28.8414 54.8901 28.8414H54.4078C54.4398 28.7563 54.4624 28.6658 54.4624 28.569V26.279C54.4624 25.8474 54.1128 25.4985 53.6819 25.4985C53.2511 25.4985 52.9015 25.8474 52.9015 26.279V28.569C52.9015 28.6658 52.9241 28.7555 52.9561 28.8414H41.3893C37.8498 28.8414 34.9698 25.9614 34.9698 22.4211V8.92097ZM38.9034 16.4355H37.3916C36.9608 16.4355 36.6111 16.7844 36.6111 17.216C36.6111 17.6476 36.9608 17.9965 37.3916 17.9965H39.1711C39.5707 19.5481 40.3668 21.0185 41.5797 22.2314C42.073 22.7247 42.6107 23.1438 43.1766 23.5028C43.1633 23.512 43.1494 23.5198 43.1355 23.5277C43.1104 23.5419 43.0853 23.5561 43.0642 23.5777L41.4447 25.1973C41.1395 25.5024 41.1395 25.9957 41.4447 26.3009C41.5969 26.4531 41.7967 26.5296 41.9965 26.5296C42.1963 26.5296 42.3961 26.4531 42.5483 26.3009L44.1678 24.6814C44.3153 24.5338 44.3879 24.3418 44.3926 24.1483C45.5836 24.6728 46.8597 24.9444 48.1389 24.9444C50.5147 24.9444 52.8905 24.0406 54.6989 22.2314C58.3157 18.6138 58.3157 12.7282 54.6989 9.11063C52.0968 6.50926 48.3247 5.78965 45.0638 6.93073C45.0543 6.91639 45.0459 6.90155 45.0374 6.88673L45.0373 6.88656C45.02 6.85625 45.0028 6.82603 44.9772 6.80038L43.3577 5.18165C43.0525 4.87648 42.5592 4.87648 42.254 5.18165C41.9489 5.48682 41.9489 5.98009 42.254 6.28526L43.5738 7.60507C42.8605 8.00858 42.1854 8.50419 41.5789 9.11141C39.577 11.1134 38.688 13.8115 38.9034 16.4355ZM42.6833 10.2142C45.6913 7.20624 50.5865 7.20624 53.5961 10.2142C56.6041 13.223 56.6041 18.1182 53.5961 21.127C50.5873 24.135 45.6921 24.135 42.6833 21.127C39.6745 18.1182 39.6745 13.223 42.6833 10.2142ZM52.8726 5.7038H55.1633C55.5941 5.7038 55.9438 5.35492 55.9438 4.92331C55.9438 4.4917 55.5941 4.14282 55.1633 4.14282H52.8726C52.4418 4.14282 52.0921 4.4917 52.0921 4.92331C52.0921 5.35492 52.4418 5.7038 52.8726 5.7038ZM46.9947 26.0698H49.2847C49.7155 26.0698 50.0652 26.4187 50.0652 26.8503C50.0652 27.2819 49.7155 27.6308 49.2847 27.6308H46.9947C46.5639 27.6308 46.2142 27.2819 46.2142 26.8503C46.2142 26.4187 46.5639 26.0698 46.9947 26.0698ZM59.3194 20.7001C59.7502 20.7001 60.0999 20.3512 60.0999 19.9196V17.6297C60.0999 17.198 59.7502 16.8492 59.3194 16.8492C58.8886 16.8492 58.5389 17.198 58.5389 17.6297V19.9196C58.5389 20.3512 58.8886 20.7001 59.3194 20.7001ZM38.5311 11.0829C38.3313 11.0829 38.1315 11.0064 37.9793 10.8542L36.3598 9.23472C36.0546 8.92955 36.0546 8.43629 36.3598 8.13112C36.665 7.82594 37.1582 7.82594 37.4634 8.13112L39.0829 9.75063C39.3881 10.0558 39.3881 10.5491 39.0829 10.8542C38.9307 11.0064 38.7309 11.0829 38.5311 11.0829ZM58.4008 10.0449C58.553 10.1971 58.7528 10.2736 58.9526 10.2736C59.1524 10.2736 59.3522 10.1971 59.5044 10.0449C59.8096 9.7397 59.8096 9.24643 59.5044 8.94126L57.8849 7.32175C57.5797 7.01658 57.0864 7.01658 56.7813 7.32175C56.4761 7.62692 56.4761 8.12019 56.7813 8.42536L58.4008 10.0449ZM39.0884 23.0611L37.4689 24.6806C37.3167 24.8328 37.1169 24.9093 36.9171 24.9093C36.7173 24.9093 36.5175 24.8328 36.3653 24.6806C36.0601 24.3754 36.0601 23.8821 36.3653 23.577L37.9848 21.9575C38.2899 21.6523 38.7832 21.6523 39.0884 21.9575C39.3936 22.2626 39.3936 22.7559 39.0884 23.0611ZM55.9719 22.7676C55.6667 23.0728 55.6667 23.566 55.9719 23.8712L57.5914 25.4899C57.7436 25.6421 57.9434 25.7186 58.1432 25.7186C58.343 25.7186 58.5428 25.6421 58.695 25.4899C59.0002 25.1848 59.0002 24.6915 58.695 24.3863L57.0755 22.7676C56.7703 22.4624 56.2763 22.4624 55.9719 22.7676ZM56.1342 34.2712C52.4105 34.2712 49.3822 37.3003 49.3822 41.0232C49.3822 44.7461 52.4113 47.7752 56.1342 47.7752C59.8572 47.7752 62.8862 44.7461 62.8862 41.0232C62.8862 37.3003 59.8579 34.2712 56.1342 34.2712ZM56.1342 46.215C53.2722 46.215 50.9432 43.8868 50.9432 41.024C50.9432 38.1612 53.2722 35.833 56.1342 35.833C58.9963 35.833 61.3253 38.1612 61.3253 41.024C61.3253 43.8868 58.9971 46.215 56.1342 46.215ZM53.2917 41.024C53.2917 39.4568 54.567 38.1815 56.1342 38.1815C57.7015 38.1815 58.976 39.4568 58.976 41.024C58.976 42.5912 57.7015 43.8665 56.1342 43.8665C54.567 43.8665 53.2917 42.5912 53.2917 41.024ZM54.8527 41.0232C54.8527 41.7303 55.4279 42.3048 56.1342 42.3048C56.8406 42.3048 57.415 41.7303 57.415 41.0232C57.415 40.3161 56.8406 39.7417 56.1342 39.7417C55.4271 39.7417 54.8527 40.3161 54.8527 41.0232ZM56.1342 50.1643C52.4105 50.1643 49.3822 53.1934 49.3822 56.9163C49.3822 60.6392 52.4113 63.6691 56.1342 63.6691C59.8572 63.6691 62.8862 60.6392 62.8862 56.9163C62.8862 53.1934 59.8579 50.1643 56.1342 50.1643ZM56.1342 62.1089C53.2722 62.1089 50.9432 59.7799 50.9432 56.9171C50.9432 54.0542 53.2722 51.726 56.1342 51.726C58.9963 51.726 61.3253 54.0542 61.3253 56.9171C61.3253 59.7799 58.9971 62.1089 56.1342 62.1089ZM53.2917 56.9171C53.2917 55.3498 54.567 54.0753 56.1342 54.0753C57.7015 54.0753 58.976 55.3498 58.976 56.9171C58.976 58.4843 57.7015 59.7596 56.1342 59.7596C54.567 59.7596 53.2917 58.4843 53.2917 56.9171ZM54.8527 56.9163C54.8527 57.6234 55.4279 58.1978 56.1342 58.1978C56.8406 58.1978 57.415 57.6234 57.415 56.9163C57.415 56.2099 56.8406 55.6355 56.1342 55.6355C55.4271 55.6355 54.8527 56.2107 54.8527 56.9163ZM40.2537 34.2712C36.5299 34.2712 33.5017 37.3003 33.5017 41.0232C33.5017 44.7461 36.5307 47.7752 40.2537 47.7752C43.9766 47.7752 47.0057 44.7461 47.0057 41.0232C47.0057 37.3003 43.9766 34.2712 40.2537 34.2712ZM40.2537 46.215C37.3916 46.215 35.0626 43.8868 35.0626 41.024C35.0626 38.1612 37.3916 35.833 40.2537 35.833C43.1157 35.833 45.4447 38.1612 45.4447 41.024C45.4447 43.8868 43.1157 46.215 40.2537 46.215ZM37.4111 41.024C37.4111 39.4568 38.6864 38.1815 40.2537 38.1815C41.8209 38.1815 43.0954 39.4568 43.0954 41.024C43.0954 42.5912 41.8209 43.8665 40.2537 43.8665C38.6864 43.8665 37.4111 42.5912 37.4111 41.024ZM38.9721 41.0232C38.9721 41.7303 39.5473 42.3048 40.2537 42.3048C40.9592 42.3048 41.5344 41.7303 41.5344 41.0232C41.5344 40.3161 40.96 39.7417 40.2537 39.7417C39.5465 39.7417 38.9721 40.3161 38.9721 41.0232ZM40.2537 50.1643C36.5299 50.1643 33.5017 53.1934 33.5017 56.9163C33.5017 60.6392 36.5307 63.6691 40.2537 63.6691C43.9766 63.6691 47.0057 60.6392 47.0057 56.9163C47.0057 53.1934 43.9766 50.1643 40.2537 50.1643ZM40.2537 62.1089C37.3916 62.1089 35.0626 59.7799 35.0626 56.9171C35.0626 54.0542 37.3916 51.726 40.2537 51.726C43.1157 51.726 45.4447 54.0542 45.4447 56.9171C45.4447 59.7799 43.1157 62.1089 40.2537 62.1089ZM37.4111 56.9171C37.4111 55.3498 38.6864 54.0753 40.2537 54.0753C41.8209 54.0753 43.0954 55.3498 43.0954 56.9171C43.0954 58.4843 41.8209 59.7596 40.2537 59.7596C38.6864 59.7596 37.4111 58.4843 37.4111 56.9171ZM38.9721 56.9163C38.9721 57.6234 39.5473 58.1978 40.2537 58.1978C40.9592 58.1978 41.5344 57.6234 41.5344 56.9163C41.5344 56.2099 40.96 55.6355 40.2537 55.6355C39.5465 55.6355 38.9721 56.2107 38.9721 56.9163Z" fill="#1B7DFF"/>
</svg>
