
<svg width="13px" height="13px" viewBox="0 0 13 13" version="1.1" xmlns="http://www.w3.org/2000/svg" xmlns:xlink="http://www.w3.org/1999/xlink">
    <g id="Design" stroke="none" stroke-width="1" fill="none" fill-rule="evenodd">
        <g id="Travel-Landing-Page" transform="translate(-429.000000, -3762.000000)" fill="#FFFFFF" fill-rule="nonzero">
            <g id="Today-top-places-Section" transform="translate(80.000000, 3309.000000)">
                <g id="1" transform="translate(0.000000, 107.000000)">
                    <g id="Comments" transform="translate(320.000000, 339.788360)">
                        <path d="M41.9939974,8.2386123 C41.9939974,7.5748285 41.4597626,7.03173266 40.7994724,7.03173266 L31.1952512,7.03173266 C30.534961,7.03173266 29.9947235,7.5748285 29.9947235,8.2386123 L29.9947235,15.4798902 C29.9947235,16.143674 30.534961,16.6867698 31.1952512,16.6867698 L39.5989447,16.6867698 L42,19.1005291 L41.9939974,8.2386123 Z M39.5989447,14.2730105 L32.3957788,14.2730105 L32.3957788,13.0661309 L39.5989447,13.0661309 L39.5989447,14.2730105 Z M39.5989447,12.4626911 L32.3957788,12.4626911 L32.3957788,11.2558114 L39.5989447,11.2558114 L39.5989447,12.4626911 Z M39.5989447,10.6523716 L32.3957788,10.6523716 L32.3957788,9.44549194 L39.5989447,9.44549194 L39.5989447,10.6523716 Z" id="Shape"></path>
                    </g>
                </g>
            </g>
        </g>
    </g>
</svg>