<?xml version="1.0" encoding="UTF-8"?>
<svg width="17px" height="17px" viewBox="0 0 17 17" version="1.1" xmlns="http://www.w3.org/2000/svg" xmlns:xlink="http://www.w3.org/1999/xlink">
    <!-- Generator: Sketch 53 (72520) - https://sketchapp.com -->
    <title>Instagram</title>
    <desc>Created with Sketch.</desc>
    <g id="Mockup" stroke="none" stroke-width="1" fill="none" fill-rule="evenodd">
        <g id="Odigo-LandingPage" transform="translate(-184.000000, -5794.000000)" fill="#FFFFFF" fill-rule="nonzero">
            <g id="Footer" transform="translate(0.000000, 5584.000000)">
                <g id="Social" transform="translate(88.484375, 210.418785)">
                    <path d="M104,0 C101.826667,0 101.555333,0.01 100.702,0.048 C99.85,0.088 99.27,0.222 98.76,0.42 C98.234,0.624 97.7873333,0.898 97.3426667,1.34266667 C96.898,1.78733333 96.6233333,2.23333333 96.42,2.76 C96.222,3.27 96.0873333,3.85 96.048,4.702 C96.008,5.55533333 96,5.82666667 96,8 C96,10.1733333 96.01,10.4446667 96.048,11.298 C96.088,12.1493333 96.222,12.73 96.42,13.24 C96.624,13.7653333 96.898,14.2126667 97.3426667,14.6573333 C97.7873333,15.1013333 98.2333333,15.3766667 98.76,15.58 C99.2706667,15.7773333 99.8506667,15.9126667 100.702,15.952 C101.555333,15.992 101.826667,16 104,16 C106.173333,16 106.444667,15.99 107.298,15.952 C108.149333,15.912 108.73,15.7773333 109.24,15.58 C109.765333,15.376 110.212667,15.1013333 110.657333,14.6573333 C111.101333,14.2126667 111.376667,13.7673333 111.58,13.24 C111.777333,12.73 111.912667,12.1493333 111.952,11.298 C111.992,10.4446667 112,10.1733333 112,8 C112,5.82666667 111.99,5.55533333 111.952,4.702 C111.912,3.85066667 111.777333,3.26933333 111.58,2.76 C111.376,2.234 111.101333,1.78733333 110.657333,1.34266667 C110.212667,0.898 109.767333,0.623333333 109.24,0.42 C108.73,0.222 108.149333,0.0873333333 107.298,0.048 C106.444667,0.008 106.173333,0 104,0 Z M104,1.44 C106.135333,1.44 106.39,1.45066667 107.233333,1.48733333 C108.013333,1.524 108.436667,1.65333333 108.718,1.764 C109.092667,1.90866667 109.358,2.082 109.639333,2.36133333 C109.918667,2.64133333 110.092,2.90733333 110.236667,3.282 C110.346,3.56333333 110.476667,3.98666667 110.512,4.76666667 C110.55,5.61066667 110.558667,5.864 110.558667,8 C110.558667,10.136 110.548667,10.39 110.509333,11.2333333 C110.468667,12.0133333 110.338667,12.4366667 110.228667,12.718 C110.079333,13.0926667 109.909333,13.358 109.629333,13.6393333 C109.35,13.9186667 109.08,14.092 108.709333,14.2366667 C108.429333,14.346 107.999333,14.4766667 107.219333,14.512 C106.37,14.55 106.12,14.5586667 103.98,14.5586667 C101.839333,14.5586667 101.589333,14.5486667 100.740667,14.5093333 C99.96,14.4686667 99.53,14.3386667 99.25,14.2286667 C98.8706667,14.0793333 98.61,13.9093333 98.3306667,13.6293333 C98.05,13.35 97.8706667,13.08 97.7306667,12.7093333 C97.6206667,12.4293333 97.4913333,11.9993333 97.4506667,11.2193333 C97.4206667,10.3793333 97.41,10.12 97.41,7.99 C97.41,5.85933333 97.4206667,5.59933333 97.4506667,4.74933333 C97.4913333,3.96933333 97.6206667,3.54 97.7306667,3.26 C97.8706667,2.88 98.05,2.62 98.3306667,2.33933333 C98.61,2.06 98.8706667,1.88 99.25,1.74066667 C99.53,1.63 99.9506667,1.5 100.730667,1.46 C101.580667,1.43 101.830667,1.42 103.97,1.42 L104,1.44 L104,1.44 Z M104,3.892 C101.73,3.892 99.892,5.732 99.892,8 C99.892,10.27 101.732,12.108 104,12.108 C106.27,12.108 108.108,10.268 108.108,8 C108.108,5.73 106.268,3.892 104,3.892 Z M104,10.6666667 C102.526667,10.6666667 101.333333,9.47333333 101.333333,8 C101.333333,6.52666667 102.526667,5.33333333 104,5.33333333 C105.473333,5.33333333 106.666667,6.52666667 106.666667,8 C106.666667,9.47333333 105.473333,10.6666667 104,10.6666667 Z M109.230667,3.73 C109.230667,4.26 108.8,4.69 108.270667,4.69 C107.740667,4.69 107.310667,4.25933333 107.310667,3.73 C107.310667,3.20066667 107.741333,2.77066667 108.270667,2.77066667 C108.799333,2.77 109.230667,3.20066667 109.230667,3.73 Z" id="Instagram"></path>
                </g>
            </g>
        </g>
    </g>
</svg>