
<svg width="82px" height="31px" viewBox="0 0 82 31" version="1.1" xmlns="http://www.w3.org/2000/svg" xmlns:xlink="http://www.w3.org/1999/xlink">
    <g id="Design" stroke="none" stroke-width="1" fill="none" fill-rule="evenodd">
        <g id="Travel-Landing-Page" transform="translate(-165.000000, -56.000000)" fill="#FFFFFF" fill-rule="nonzero">
            <g id="Hero">
                <g id="Nav" transform="translate(165.000000, 56.000000)">
                    <g id="odigo-Logo">
                        <path d="M81.4580012,12.085144 C81.091355,10.9163824 80.5812385,9.8589314 79.8638872,8.93664334 C79.1465359,8.01435528 78.2697731,7.34649151 77.233599,6.84559368 C76.9386879,6.6865785 76.5800123,6.52756331 76.2771306,6.44805572 C76.2771306,6.44805572 76.1655426,6.38444965 76.0619252,6.38444965 C76.0141018,6.38444965 75.9583078,6.38444965 75.9025138,6.32879434 C75.8626609,6.32879434 75.806867,6.32879434 75.806867,6.27313902 L75.0496628,6.11412384 C74.4917229,6.01871473 73.7743716,5.97101017 72.9454323,6.01871473 C71.7179644,6.07437004 70.6339669,6.33674509 69.6774985,6.78198761 C68.6413243,7.29083619 67.7645616,8.00640452 67.0472103,8.86508651 C66.329859,9.78737457 65.8197425,10.797121 65.4530963,12.0215379 C65.1023912,13.1823487 64.9429798,14.5021747 64.9429798,15.8220008 C64.9429798,17.1974821 65.1023912,18.4696036 65.4610668,19.6383652 C65.8277131,20.8071268 66.3936235,21.8645777 67.0551809,22.7391612 C67.5732679,23.3513697 68.1312078,23.8522675 68.8087063,24.3134115 C69.111588,24.5201313 69.3666462,24.6711957 69.685469,24.8222601 L69.7253219,24.8222601 C69.7253219,24.8222601 69.7731453,24.8222601 69.7731453,24.8699647 C69.8369099,24.8699647 69.8369099,24.92562 69.8847333,24.92562 C70.4028204,25.1800443 70.9687308,25.323158 71.5824647,25.4344686 C73.375843,25.784302 74.9141631,25.5378285 74.9141631,25.5378285 C75.7351318,25.4344686 76.5082771,25.1800443 77.2256284,24.8699647 C78.3016554,24.3611161 79.1704476,23.6534985 79.8957695,22.7868658 C80.6131208,21.9281838 81.1232373,20.8548313 81.4898835,19.6860697 C81.8405886,18.5173081 82,17.2451867 82,15.8697053 C82,14.5021747 81.7927652,13.2300533 81.4819129,12.0533409 L81.4580012,12.085144 Z M69.4463519,13.1982502 C69.6535868,12.4031743 69.908645,11.6319507 70.2673207,11.0197422 C70.6259963,10.4154845 71.0882894,9.90663596 71.5984059,9.55680255 C72.1164929,9.19901839 72.7302269,9.00024941 73.3917842,9.00024941 C74.0613121,9.00024941 74.6272226,9.14336308 75.1453096,9.50114724 C75.6554261,9.85098064 76.0619252,10.2962232 76.4206009,10.8686778 C76.7792765,11.4808863 77.0423053,12.1407993 77.2415696,12.9517767 C77.456775,13.7627541 77.5603924,14.5816823 77.5603924,15.4960196 L77.5603924,15.7981485 C77.5603924,16.7124858 77.456775,17.6268231 77.3053342,18.4378005 C77.0980993,19.2567287 76.8430411,19.9643463 76.4843654,20.5845055 C76.1256898,21.1887632 75.6633967,21.6419565 75.1453096,21.9997406 C74.6351931,22.3575248 74.0294298,22.5085892 73.3519313,22.5085892 C72.6824034,22.5085892 72.0766401,22.349574 71.558553,21.9997406 C71.040466,21.6419565 70.5781729,21.1887632 70.2194972,20.568604 C69.852851,19.9643463 69.5977928,19.2567287 69.3905579,18.4378005 C69.1912937,17.6268231 69.1354997,16.7124858 69.1354997,15.7981485 C69.1912937,14.923565 69.2949111,14.0171784 69.4543225,13.206201 L69.4463519,13.1982502 Z M56.2072348,27.994613 L58.1998774,25.7127452 L58.1998774,17.2133836 L62.4242796,15.0348756 L62.5199264,15.9094591 L62.5199264,27.3903553 L59.2838749,31 L56.2072348,31 L56,28.2013328 L56.2072348,27.994613 Z" id="Shape"></path>
                        <path d="M62.4604685,11.4580057 C62.0900439,10.3019818 61.5746706,9.25605536 60.8499268,8.34381881 C60.125183,7.43158226 59.2393851,6.77099717 58.1925329,6.27555835 C57.8945827,6.11827619 57.5322108,5.96099402 57.2262079,5.88235294 C57.2262079,5.88235294 57.11347,5.81944008 57.0087848,5.81944008 C56.9604685,5.81944008 56.9121523,5.81944008 56.8477306,5.76439132 C56.8074671,5.76439132 56.7510981,5.76439132 56.7510981,5.70934256 L55.9860908,5.5520604 C55.4224012,5.4576911 54.6976574,5.41050645 53.8601757,5.4576911 C52.6200586,5.51273986 51.5248902,5.77225543 50.5585652,6.21264549 C49.511713,6.71594841 48.6259151,7.42371815 47.9011713,8.27304184 C47.1764275,9.18527839 46.6610542,10.1840201 46.2906296,11.3950928 C45.9363104,12.5432526 45.7833089,13.8486946 45.7833089,15.1541365 C45.7833089,16.5146272 45.9443631,17.7728846 46.2986823,18.9289085 C46.6691069,20.0849324 47.2408492,21.1308588 47.909224,21.9959107 C48.4326501,22.601447 49.0043924,23.0968858 49.6808199,23.5530041 C49.9868228,23.7574709 50.2445095,23.906889 50.5666179,24.056307 L50.6068814,24.056307 C50.6068814,24.056307 50.6632504,24.056307 50.6632504,24.1034917 C50.7115666,24.1034917 50.7115666,24.1585404 50.7679356,24.1585404 C51.2833089,24.4101919 51.8550512,24.5517458 52.4751098,24.6618433 C54.2869693,25.0078641 55.841142,24.7640768 55.841142,24.7640768 C56.670571,24.6618433 57.4516837,24.4101919 58.1764275,24.1034917 C59.2635432,23.6001887 60.1493411,22.9002831 60.8740849,22.0430953 C61.5988287,21.1937716 62.114202,20.132117 62.4846266,18.9760931 C62.8389458,17.8200692 63,16.5618119 63,15.2013212 C63,13.8486946 62.8389458,12.5904372 62.4765739,11.4265492 L62.4604685,11.4580057 Z M50.3814056,12.5589808 C50.5827233,11.77257 50.84041,11.0097515 51.2027818,10.4042152 C51.5651537,9.80654294 52.0322108,9.30324001 52.5556369,8.95721925 C53.0710102,8.60333438 53.6830161,8.40673168 54.3674963,8.40673168 C55.0439239,8.40673168 55.6156662,8.54828562 56.1390922,8.90217049 C56.6464129,9.24819126 57.0651537,9.68858131 57.4275256,10.2547971 C57.7898975,10.8603334 58.0475842,11.5130544 58.2569546,12.3151935 C58.466325,13.1173325 58.579063,13.9273356 58.579063,14.8317081 L58.579063,15.1305442 C58.579063,16.0349166 58.466325,16.9392891 58.3052709,17.7414281 C58.1039531,18.5514313 57.8382138,19.2513369 57.4758419,19.8647373 C57.1215227,20.4624096 56.6544656,20.9106637 56.1390922,21.2645486 C55.6237189,21.6184335 54.9956076,21.7678515 54.3272328,21.7678515 C53.6427526,21.7678515 53.022694,21.6105694 52.4992679,21.2645486 C51.9838946,20.9106637 51.5168375,20.4624096 51.1544656,19.8490091 C50.7920937,19.2513369 50.534407,18.5514313 50.3250366,17.7414281 C50.1156662,16.9392891 50.0673499,16.0349166 50.0673499,15.1305442 C50.1237189,14.2654923 50.1800878,13.368984 50.3894583,12.5668449 L50.3814056,12.5589808 Z M38.9626647,5.53633218 L43.3111274,5.53633218 L43.3111274,25 L38.9626647,25 L38.9626647,5.52060396 L38.9626647,5.53633218 Z M30.2657394,3.00408934 L32.2789165,5.22176785 L32.2789165,13.6756842 L36.5468521,15.8776345 L36.6434846,15.2327776 L36.6434846,3.61748978 L33.3096633,0.0471846493 L30.2093704,0 L30,2.81535074 L30.2657394,3.00408934 Z" id="Shape"></path>
                        <path d="M35.9834971,12.3468492 C35.6167254,11.1680599 35.1064343,10.1015363 34.3888374,9.1713352 C33.6712405,8.24113414 32.7941776,7.56754026 31.7576488,7.06234486 C31.4626368,6.90196537 31.1038383,6.74158587 30.800853,6.66139612 C30.800853,6.66139612 30.6892268,6.59724433 30.5855739,6.59724433 C30.5377341,6.59724433 30.481921,6.59724433 30.4261079,6.5411115 C30.3782681,6.5411115 30.3304283,6.5411115 30.3304283,6.48497868 L29.5649917,6.32459919 C29.0068607,6.22837149 28.2892639,6.18025764 27.4680141,6.22837149 C26.2401261,6.28450431 25.1557575,6.54913048 24.1989616,6.99819306 C23.1624328,7.51140744 22.2853699,8.23311516 21.567773,9.09916443 C20.8501762,10.0293655 20.339885,11.0477753 19.9731133,12.2826974 C19.6222882,13.4534677 19.4628222,14.7846175 19.4628222,16.1157673 C19.4628222,17.5030499 19.6222882,18.7860858 19.9810866,19.9648751 C20.3478583,21.1436644 20.9059892,22.210188 21.5757463,23.0922752 C22.0940108,23.7097363 22.6521417,24.2149317 23.3298721,24.6800322 C23.6328574,24.8885256 24.2468014,25.1932466 24.2468014,25.1932466 C24.2468014,25.1932466 24.2946412,25.1932466 24.2946412,25.2413605 C24.3584276,25.2413605 24.3584276,25.2974933 24.4062674,25.2974933 C24.9245318,25.5541005 25.4826627,25.698442 26.10458,25.8107077 C27.8985722,26.1635425 29.4374189,25.9149543 29.4374189,25.9149543 C30.2586686,25.8107077 31.0320786,25.5541005 31.7496755,25.2413605 C32.8260708,24.7281461 33.6951604,24.0144573 34.4207306,23.1403891 C35.1383275,22.2743398 35.6486186,21.1917782 36.0153903,20.012989 C36.3662155,18.8341997 36.5177081,17.5511637 36.5177081,16.1638811 C36.5177081,14.7846175 36.3183757,13.5015815 36.007417,12.3147733 L35.9834971,12.3468492 Z M23.967736,13.4695056 C24.1750417,12.6676082 24.4301873,11.8897676 24.7889857,11.2723066 C25.1477842,10.6628645 25.6102355,10.1496501 26.1205266,9.79681523 C26.638791,9.43596136 27.252735,9.235487 27.9145188,9.235487 C28.5842759,9.235487 29.1503801,9.37982854 29.6686445,9.7406824 C30.1789357,10.0935173 30.5855739,10.5425799 30.9443723,11.119946 C31.3031708,11.7374071 31.5583163,12.402982 31.7656221,13.2209174 C31.9809012,14.0388528 32.0845541,14.8648072 32.0845541,15.7869893 L32.0845541,16.0917103 C32.0845541,17.0138924 31.9809012,17.9360745 31.8294085,18.7540099 C31.6221027,19.5799643 31.3669572,20.2936531 31.0081587,20.9191331 C30.6493603,21.5285752 30.186909,21.9856567 29.6686445,22.3465106 C29.1583534,22.7073645 28.5523827,22.859725 27.8746523,22.859725 C27.2048952,22.859725 26.5989245,22.6993455 26.0806601,22.3465106 C25.5623957,21.9856567 25.0999444,21.5285752 24.7411459,20.9030952 C24.3743742,20.2936531 24.1192286,19.5799643 23.9119229,18.7540099 C23.7125904,17.9360745 23.6567773,17.0138924 23.6567773,16.0917103 C23.7125904,15.2096231 23.8162433,14.29546 23.9757093,13.4775246 L23.967736,13.4695056 Z M16.5206749,12.3468492 C16.1539032,11.1680599 15.6436121,10.1015363 14.9260152,9.1713352 C14.2084183,8.24113414 13.3313555,7.56754026 12.2948266,7.06234486 C11.9998146,6.90196537 11.6410161,6.74158587 11.3380308,6.66139612 C11.3380308,6.66139612 11.2264046,6.59724433 11.1227517,6.59724433 C11.0749119,6.59724433 11.0270721,6.59724433 10.9632857,6.5411115 C10.9234192,6.5411115 10.8676062,6.5411115 10.8676062,6.48497868 L10.1101428,6.32459919 C9.55201187,6.22837149 8.83441498,6.18025764 8.00519192,6.22837149 C6.77730391,6.28450431 5.69293529,6.54913048 4.73613944,6.99819306 C3.69961061,7.51140744 2.82254775,8.23311516 2.10495086,9.09916443 C1.38735398,10.0293655 0.877062859,11.0477753 0.510291118,12.2826974 C0.159465974,13.4534677 0,14.7846175 0,16.1157673 C0,17.5030499 0.159465974,18.7860858 0.518264417,19.9648751 C0.885036158,21.1917782 1.39532728,22.210188 2.11292416,23.0922752 C2.63118858,23.7097363 3.19729279,24.2149317 3.86704988,24.6800322 C4.17003523,24.8885256 4.42518079,25.0408861 4.74411274,25.1932466 L4.78397923,25.1932466 C4.78397923,25.1932466 4.83979232,25.1932466 4.83979232,25.2413605 C4.88763212,25.2974933 4.88763212,25.2974933 4.93547191,25.2974933 C5.45373632,25.5541005 6.01984053,25.698442 6.63378454,25.8107077 C8.42777675,26.1635425 9.9666234,25.9149543 9.9666234,25.9149543 C10.7878732,25.8107077 11.5612831,25.5541005 12.27888,25.2413605 C13.3552754,24.7281461 14.2323382,24.0144573 14.9499351,23.1403891 C15.667532,22.2743398 16.1778231,21.1917782 16.5445948,20.012989 C16.89542,18.8341997 17.054886,17.5511637 17.054886,16.1638811 C17.054886,14.7846175 16.89542,13.5015815 16.5366215,12.3147733 L16.5206749,12.3468492 Z M4.56072687,13.4695056 C4.76005934,12.6676082 5.0152049,11.8897676 5.37400334,11.2723066 C5.73280178,10.6628645 6.19525311,10.1496501 6.71351752,9.79681523 C7.22380864,9.43596136 7.82977934,9.235487 8.50750973,9.235487 C9.17726683,9.235487 9.74337104,9.37982854 10.2616355,9.7406824 C10.7639533,10.0935173 11.1785648,10.5425799 11.5373632,11.119946 C11.8961617,11.7374071 12.1513073,12.402982 12.358613,13.2209174 C12.5659188,14.0388528 12.677545,14.8648072 12.677545,15.7869893 L12.6615984,16.0917103 C12.6615984,17.0138924 12.5659188,17.9360745 12.4064528,18.7540099 C12.2071203,19.5799643 11.9440015,20.2936531 11.585203,20.9191331 C11.2343779,21.5285752 10.7719266,21.9856567 10.2616355,22.3465106 C9.75134434,22.7073645 9.12942704,22.859725 8.46764324,22.859725 C7.78991285,22.859725 7.17596885,22.6993455 6.65770443,22.3465106 C6.14741331,21.9856567 5.68496199,21.5285752 5.32616355,20.9030952 C5.0072316,20.3978998 4.76803263,19.684211 4.55275357,18.8181617 C4.3454478,17.9922073 4.28963471,17.0539873 4.28963471,16.1398242 C4.28963471,15.2176421 4.3454478,14.29546 4.54478027,13.4775246 L4.56072687,13.4695056 Z M39.0133506,3.00474367 C39.0133506,1.89812516 39.9063601,1 41.0066753,1 C42.1069905,1 43,1.89812516 43,3.00474367 C43,4.11136218 42.1069905,5.00948734 41.0066753,5.00948734 C39.9063601,5.05760119 39.0133506,4.167495 39.0133506,3.00474367 Z" id="Shape"></path>
                    </g>
                </g>
            </g>
        </g>
    </g>
</svg>