<?xml version="1.0" encoding="UTF-8"?>
<svg width="16px" height="14px" viewBox="0 0 16 14" version="1.1" xmlns="http://www.w3.org/2000/svg" xmlns:xlink="http://www.w3.org/1999/xlink">
    <!-- Generator: Sketch 53 (72520) - https://sketchapp.com -->
    <title>Twitter</title>
    <desc>Created with Sketch.</desc>
    <g id="Mockup" stroke="none" stroke-width="1" fill="none" fill-rule="evenodd">
        <g id="Odigo-LandingPage" transform="translate(-136.000000, -5796.000000)" fill="#FFFFFF">
            <g id="Footer" transform="translate(0.000000, 5584.000000)">
                <g id="Social" transform="translate(88.484375, 210.418785)">
                    <path d="M63.33056,3.64416 C62.76416,3.89312 62.15936,4.06272 61.52256,4.14016 C62.17152,3.74912 62.67072,3.1328 62.90688,2.39744 C62.29824,2.75264 61.62368,3.0112 60.9056,3.1552 C60.33216,2.54144 59.51488,2.15744 58.60736,2.15744 C56.86848,2.15744 55.45856,3.56736 55.45856,5.30432 C55.45856,5.55392 55.48736,5.79392 55.53984,6.02368 C52.92224,5.90016 50.60224,4.6432 49.0496,2.74304 C48.77632,3.20512 48.62336,3.74208 48.62336,4.32704 C48.62336,5.42144 49.18016,6.38336 50.02368,6.94848 C49.5072,6.93184 49.02144,6.78976 48.59776,6.55424 L48.59776,6.59328 C48.59776,8.11968 49.68128,9.39264 51.1232,9.68256 C50.85888,9.7536 50.57984,9.792 50.29376,9.792 C50.0928,9.792 49.90016,9.7728 49.70752,9.73696 C50.11136,10.98688 51.27232,11.89824 52.65408,11.92384 C51.57888,12.768 50.21632,13.27104 48.7488,13.27104 C48.4992,13.27104 48.25024,13.25632 48,13.22816 C49.40096,14.12032 51.05152,14.64192 52.83648,14.64192 C58.63104,14.64192 61.79584,9.84448 61.79584,5.69088 C61.79584,5.55712 61.79584,5.42208 61.78624,5.28768 C62.40128,4.84672 62.93824,4.28928 63.36064,3.65696 L63.33056,3.64416 Z" id="Twitter"></path>
                </g>
            </g>
        </g>
    </g>
</svg>