<?xml version="1.0" encoding="UTF-8"?>
<svg width="17px" height="13px" viewBox="0 0 17 13" version="1.1" xmlns="http://www.w3.org/2000/svg" xmlns:xlink="http://www.w3.org/1999/xlink">
    <!-- Generator: Sketch 53 (72520) - https://sketchapp.com -->
    <title>Youtube</title>
    <desc>Created with Sketch.</desc>
    <g id="Mockup" stroke="none" stroke-width="1" fill="none" fill-rule="evenodd">
        <g id="Odigo-LandingPage" transform="translate(-232.000000, -5798.000000)" fill="#FFFFFF" fill-rule="nonzero">
            <g id="Footer" transform="translate(0.000000, 5584.000000)">
                <g id="Social" transform="translate(88.484375, 210.418785)">
                    <path d="M159.663333,6.13666667 C159.474794,5.46110451 158.946895,4.93320602 158.271333,4.74466667 C157.024667,4.41066667 152.007333,4.41066667 152.007333,4.41066667 C152.007333,4.41066667 147.002667,4.404 145.743333,4.74466667 C145.067771,4.93320602 144.539873,5.46110451 144.351333,6.13666667 C144.115014,7.41300704 143.998507,8.70864186 144.003333,10.0066667 C143.999419,11.2997935 144.115922,12.5904757 144.351333,13.862 C144.539873,14.5375622 145.067771,15.0654607 145.743333,15.254 C146.988667,15.5886667 152.007333,15.5886667 152.007333,15.5886667 C152.007333,15.5886667 157.011333,15.5886667 158.271333,15.254 C158.946895,15.0654607 159.474794,14.5375622 159.663333,13.862 C159.893826,12.5900152 160.005419,11.2993367 159.996667,10.0066667 C160.006331,8.70910039 159.894735,7.41346931 159.663333,6.13666667 L159.663333,6.13666667 Z M150.406,12.4006667 L150.406,7.60533333 L154.582,10.0066667 L150.406,12.4006667 Z" id="Youtube"></path>
                </g>
            </g>
        </g>
    </g>
</svg>